# xmcd
#
# Track frame offsets:
#	150
#	26257
#	44362
#	59419
#	76312
#	90534
#	109029
#	127129
#	148299
#	181471
#	198671
#	216389
#	231168
#	244963
#	260602
#	279348
#	296323
#	315465
#	335020
#
# Disc length: 4666 seconds
#
# Revision: 1
# Processed by: cddbd v1.5.1PL0 Copyright (c) Steve Scherf et al.
# Submitted via: audiograbber 1.83.01
#
DISCID=25123813
DTITLE=Mustafa Sandal - Maxi Sandal (Greatest Hits)
DYEAR=2005
DGENRE=V.A.
TTITLE0=Aska Yurek Gerek
TTITLE1=Moonlight
TTITLE2=Yok Gerekcem
TTITLE3=En Kotu Yhtimalle
TTITLE4=Kop (Remix)
TTITLE5=Aska Yurek Gerek (Orient Mix)
TTITLE6=Aya Benzer (2003 Mix)
TTITLE7=Aska Yurek Gerek (Dance Mix)
TTITLE8=Aska Yurek Gerek (Club Trance Mix)
TTITLE9=Tek Gecerim
TTITLE10=Guncel Zalim
TTITLE11=Hava Atma
TTITLE12=Hatirla Beni (Remix)
TTITLE13=Pazara Kadar
TTITLE14=Gecmis Olsun
TTITLE15=Kopmam Lazm
TTITLE16=Bizi Yorar
TTITLE17=Tusuma Bas
TTITLE18=Yok Gerekcem
EXTD=
EXTT0=
EXTT1=
EXTT2=
EXTT3=
EXTT4=
EXTT5=
EXTT6=
EXTT7=
EXTT8=
EXTT9=
EXTT10=
EXTT11=
EXTT12=
EXTT13=
EXTT14=
EXTT15=
EXTT16=
EXTT17=
EXTT18=
PLAYORDER=
